<?xml version="1.0" encoding="UTF-8"?>
<!DOCTYPE svg PUBLIC "-//W3C//DTD SVG 1.1//EN" "http://www.w3.org/Graphics/SVG/1.1/DTD/svg11.dtd">
<!-- Creator: CorelDRAW -->
<svg xmlns="http://www.w3.org/2000/svg" xml:space="preserve" width="2.0156mm" height="2.0156mm" version="1.1" style="shape-rendering:geometricPrecision; text-rendering:geometricPrecision; image-rendering:optimizeQuality; fill-rule:evenodd; clip-rule:evenodd"
viewBox="0 0 1.5 1.5"
 xmlns:xlink="http://www.w3.org/1999/xlink"
 xmlns:xodm="http://www.corel.com/coreldraw/odm/2003">
 <defs>
  <style type="text/css">
   <![CDATA[
    .fil0 {fill:#9A9A9A}
   ]]>
  </style>
 </defs>
 <g id="Слой_x0020_1">
  <metadata id="CorelCorpID_0Corel-Layer"/>
  <g id="_1720349967296">
   <path class="fil0" d="M0.75 0c0.42,0 0.75,0.34 0.75,0.75 0,0.18 -0.06,0.34 -0.16,0.47 -0.02,-0.03 -0.04,-0.05 -0.07,-0.07 0.09,-0.11 0.14,-0.25 0.14,-0.4 0,-0.36 -0.29,-0.66 -0.66,-0.66 -0.1,0 -0.19,0.02 -0.27,0.06 -0.01,-0.03 -0.03,-0.06 -0.05,-0.08 0.1,-0.05 0.21,-0.07 0.32,-0.07zm0.25 1.46c-0.08,0.03 -0.16,0.04 -0.25,0.04 -0.42,0 -0.75,-0.34 -0.75,-0.75 0,-0.15 0.04,-0.29 0.12,-0.4 0.02,0.03 0.04,0.05 0.07,0.06 -0.06,0.1 -0.1,0.22 -0.1,0.34 0,0.36 0.29,0.66 0.66,0.66 0.07,0 0.14,-0.01 0.21,-0.03 0.01,0.03 0.02,0.06 0.04,0.09z"/>
   <path class="fil0" d="M0.75 0.27c0.27,0 0.49,0.22 0.49,0.49 0,0.27 -0.22,0.49 -0.49,0.49 -0.27,0 -0.49,-0.22 -0.49,-0.49 0,-0.27 0.22,-0.49 0.49,-0.49zm-0.14 0.27l0.03 0 0 0 0.06 0 0 -0.04c0,-0.02 0.02,-0.04 0.04,-0.04 0.02,0 0.04,0.02 0.04,0.04l0 0.04 0.01 0c0.03,0 0.06,0 0.08,0 0.02,0 0.03,0.01 0.04,0.02 0.01,0.01 0.02,0.02 0.03,0.04 0.01,0.01 0.01,0.03 0.01,0.05 0,0.02 -0.01,0.04 -0.02,0.05 -0.01,0.02 -0.03,0.03 -0.04,0.04 0.03,0.01 0.05,0.02 0.06,0.04 0.01,0.02 0.02,0.04 0.02,0.06 0,0.02 -0,0.04 -0.01,0.06 -0.01,0.02 -0.02,0.03 -0.04,0.04 -0.02,0.01 -0.03,0.02 -0.06,0.02 -0.01,0 -0.04,0 -0.09,0l0 0.04c0,0.02 -0.02,0.04 -0.04,0.04 -0.02,0 -0.04,-0.02 -0.04,-0.04l0 -0.04 -0.06 0 -0 0 -0.07 0c-0.02,0 -0.04,-0.02 -0.04,-0.04 0,-0.02 0.02,-0.04 0.04,-0.04l0.05 0 0 -0.28 -0.05 0c-0.02,0 -0.04,-0.02 -0.04,-0.04 0,-0.02 0.02,-0.04 0.04,-0.04l0.05 0zm0.09 0.07l0 0.1 0.06 0c0.03,0 0.05,-0 0.06,-0 0.01,-0 0.03,-0.01 0.03,-0.02 0.01,-0.01 0.01,-0.02 0.01,-0.03 0,-0.01 -0,-0.02 -0.01,-0.03 -0.01,-0.01 -0.02,-0.01 -0.03,-0.01 -0.01,-0 -0.03,-0 -0.07,-0l-0.05 0zm0 0.17l0 0.11 0.08 0c0.03,0 0.05,-0 0.06,-0 0.01,-0 0.02,-0.01 0.03,-0.02 0.01,-0.01 0.01,-0.02 0.01,-0.04 0,-0.01 -0,-0.02 -0.01,-0.03 -0.01,-0.01 -0.02,-0.02 -0.03,-0.02 -0.01,-0 -0.04,-0.01 -0.08,-0.01l-0.07 0z"/>
   <circle class="fil0" cx="0.28" cy="0.22" r="0.13"/>
   <circle class="fil0" cx="1.16" cy="1.33" r="0.13"/>
  </g>
 </g>
</svg>
