<?xml version="1.0" encoding="UTF-8"?>
<!DOCTYPE svg PUBLIC "-//W3C//DTD SVG 1.1//EN" "http://www.w3.org/Graphics/SVG/1.1/DTD/svg11.dtd">
<!-- Creator: CorelDRAW -->
<svg xmlns="http://www.w3.org/2000/svg" xml:space="preserve" width="1.9737mm" height="2.0301mm" version="1.1" style="shape-rendering:geometricPrecision; text-rendering:geometricPrecision; image-rendering:optimizeQuality; fill-rule:evenodd; clip-rule:evenodd"
viewBox="0 0 1.51 1.55"
 xmlns:xlink="http://www.w3.org/1999/xlink"
 xmlns:xodm="http://www.corel.com/coreldraw/odm/2003">
 <defs>
  <style type="text/css">
   <![CDATA[
    .fil0 {fill:#9A9A9A;fill-rule:nonzero}
   ]]>
  </style>
 </defs>
 <g id="Слой_x0020_1">
  <metadata id="CorelCorpID_0Corel-Layer"/>
  <path class="fil0" d="M1.33 0.85c0,-0.02 0,-0.05 0,-0.08 0,-0.03 -0,-0.05 -0.01,-0.08l0.16 -0.13c0.01,-0.01 0.02,-0.03 0.01,-0.05l-0.16 -0.27c-0.01,-0.02 -0.03,-0.02 -0.05,-0.02l-0.19 0.08c-0.04,-0.03 -0.08,-0.06 -0.13,-0.08l-0.03 -0.21c-0,-0.02 -0.02,-0.03 -0.04,-0.03l-0.31 0c-0.02,0 -0.03,0.01 -0.04,0.03l-0.03 0.21c-0.05,0.02 -0.09,0.05 -0.13,0.08l-0.19 -0.08c-0.02,-0.01 -0.04,0 -0.05,0.02l-0.16 0.27c-0.01,0.02 -0.01,0.04 0.01,0.05l0.16 0.13c-0,0.02 -0.01,0.05 -0.01,0.08 0,0.03 0,0.05 0.01,0.08l-0.16 0.13c-0.01,0.01 -0.02,0.03 -0.01,0.05l0.16 0.27c0.01,0.02 0.03,0.02 0.05,0.02l0.19 -0.08c0.04,0.03 0.08,0.06 0.13,0.08l0.03 0.21c0,0.02 0.02,0.03 0.04,0.03l0.31 0c0.02,0 0.04,-0.01 0.04,-0.03l0.03 -0.21c0.05,-0.02 0.09,-0.05 0.13,-0.08l0.19 0.08c0.02,0.01 0.04,0 0.05,-0.02l0.16 -0.27c0.01,-0.02 0.01,-0.04 -0.01,-0.05l-0.16 -0.13zm-0.58 0.22c-0.16,0 -0.29,-0.13 -0.29,-0.29 0,-0.16 0.13,-0.29 0.29,-0.29 0.16,0 0.29,0.13 0.29,0.29 0,0.16 -0.13,0.29 -0.29,0.29z"/>
 </g>
</svg>
