<svg width="18" height="18" viewBox="0 0 18 18" fill="none" xmlns="http://www.w3.org/2000/svg">
<g clip-path="url(#clip0_1_501)">
<path d="M8.60492 3.01343C5.55868 3.01343 3.0134 5.49174 3.0134 8.53798C3.0134 11.5842 5.55868 14.1295 8.60492 14.1295C11.6512 14.1295 14.1295 11.5842 14.1295 8.53798C14.1295 5.49174 11.6512 3.01343 8.60492 3.01343ZM9.60938 11.0491H9.10715V11.5514C9.10715 12.2134 8.10268 12.2161 8.10268 11.5514V11.0491H6.59599C5.93394 11.0491 5.93123 10.0447 6.59599 10.0447H7.09822V7.03129H6.59599C5.93394 7.03129 5.93123 6.02682 6.59599 6.02682H8.10268V5.52459C8.10268 4.86255 9.10715 4.85983 9.10715 5.52459V6.02682H9.60938C10.8985 6.02682 11.6071 7.559 10.7242 8.53798C11.6071 9.51697 10.8985 11.0491 9.60938 11.0491Z" fill="#F7A508"/>
<path d="M9.60937 9.04016H8.10268V10.0446H9.60937C10.2733 10.0446 10.2733 9.04016 9.60937 9.04016Z" fill="#F7A508"/>
<path d="M9.60937 7.03125H8.10268V8.03571H9.60937C10.2733 8.03571 10.2733 7.03125 9.60937 7.03125Z" fill="#F7A508"/>
<path d="M2.51117 2.00891C1.68034 2.00891 1.00447 2.68478 1.00447 3.51561C1.00447 4.34643 1.68034 5.0223 2.51117 5.0223C3.34199 5.0223 4.01786 4.34643 4.01786 3.51561C4.01786 2.68478 3.34199 2.00891 2.51117 2.00891Z" fill="#F7A508"/>
<path d="M8.60488 0C6.92571 0 5.24809 0.500525 3.86815 1.40896C4.16232 1.59914 4.41461 1.84684 4.6073 2.13921C5.78353 1.41325 7.19742 0.997768 8.60488 0.997768C12.7591 0.997768 16.1451 4.38375 16.1451 8.53795C16.1451 9.47602 15.9529 10.458 15.6145 11.3172C15.9382 11.4553 16.2224 11.6634 16.4596 11.9168C16.9045 10.8753 17.1428 9.68699 17.1428 8.53795C17.1428 3.83002 13.3128 0 8.60488 0Z" fill="#F7A508"/>
<path d="M12.5355 15.0038C11.3593 15.7297 10.0124 16.1452 8.60491 16.1452C4.45071 16.1452 0.997768 12.6922 0.997768 8.53805C0.997768 7.60005 1.18999 6.68498 1.52839 5.82579C1.20475 5.68761 0.920458 5.47952 0.68327 5.2262C0.238359 6.26769 0 7.45597 0 8.60501C0 13.3129 3.89699 17.143 8.60491 17.143C10.2841 17.143 11.8947 16.6424 13.2747 15.734C12.9805 15.5438 12.7282 15.2961 12.5355 15.0038Z" fill="#F7A508"/>
<path d="M14.6317 12.1205C13.8009 12.1205 13.125 12.7964 13.125 13.6272C13.125 14.458 13.8009 15.1339 14.6317 15.1339C15.4625 15.1339 16.1384 14.458 16.1384 13.6272C16.1384 12.7964 15.4625 12.1205 14.6317 12.1205Z" fill="#F7A508"/>
</g>
<defs>
<clipPath id="clip0_1_501">
<rect width="17.1429" height="17.1429" fill="white"/>
</clipPath>
</defs>
</svg>
